<?xml version="1.0" encoding="UTF-8"?>
<svg id="Calque_1" xmlns="http://www.w3.org/2000/svg" version="1.1" viewBox="0 0 31.88575 36.37427">
  <!-- Generator: Adobe Illustrator 29.8.2, SVG Export Plug-In . SVG Version: 2.1.1 Build 3)  -->
  <defs>
    <style>
      .st0 {
        fill: #183a56;
      }
    </style>
  </defs>
  <path class="st0" d="M23.13825,17.31793v-.07611c4.03375-.65509,6.78369-4.20947,6.78369-8.21765v-.05048C29.92194,3.60485,25.78498,0,19.38257,0h-9.6134v6.60779c-3.23602.90802-6.05316,3.2804-8.10175,5.1861-1.11108,2.06628-1.66742,4.10846-1.66742,6.53485,0,6.51746,3.97656,10.54706,9.76917,11.25201v6.79352h9.58783c8.06683,0,12.52875-3.78125,12.52875-9.95673v-.05054c0-5.01605-3.60486-8.44446-8.7475-9.04906ZM18.65138,3.04998c4.94067,0,7.86481,2.34448,7.86481,6.25159l.00073.05054c0,4.31042-3.30255,6.80566-8.82294,6.80566h-4.49634v-7.1098c2.57166.54163,4.18628,2.15576,5.39685,3.68134l2.52673-2.60571c-1.46423-1.9754-3.88696-3.6806-7.92358-3.86237v-3.21124s5.45374,0,5.45374,0ZM3.79005,17.09906c0-2.29102.40405-4.0235,1.51587-6.35919,1.35779-.88568,2.79834-1.57617,4.46326-1.80817v17.70392c-3.56824-.95154-5.97913-3.99719-5.97913-9.53656ZM28.35633,26.29162c0,4.46198-3.20087,7.03259-9.47803,7.03259h-5.68066v-3.71875c2.16968-.18188,4.49097-1.09827,5.70135-1.6369l3.33478-3.18988-.70709-.89807c-1.86761,1.21167-4.94751,2.98096-8.32904,3.0741v-7.82227h5.37836c6.17548,0,9.78107,2.54572,9.78107,7.1087l-.00073.05048h-.00002Z"/>
</svg>